# xmcd
#
# Track frame offsets:
#	150
#	18230
#	36270
#	63663
#
# Disc length: 1490 seconds
#
# Revision: 3
# Processed by: cddbd v1.5.1PL2 Copyright (c) Steve Scherf et al.
# Submitted via: audiograbber 1.83.01
#
DISCID=2e05d004
DTITLE=Rihanna - SOS (Maxi)
DYEAR=2006
DGENRE=Dance
TTITLE0=SOS (Radio Edit)
TTITLE1=SOS (Instrumental)
TTITLE2=Break it Off (Feat. Sean Paul)
TTITLE3=SOS Video
EXTD=
EXTT0=
EXTT1=
EXTT2=
EXTT3=
PLAYORDER=
